<svg width="61" height="72" viewBox="0 0 61 72" fill="none" xmlns="http://www.w3.org/2000/svg">
<path d="M52.0973 8.91743C46.1622 3.30275 38.5784 0 30.3351 0C22.0919 0 14.5081 3.30275 8.9027 8.91743C3.2973 14.5321 0 22.4587 0 30.3853C0 46.8991 15.4973 60.4404 24.0703 68.0367C25.3892 69.0275 26.3784 70.0183 27.0378 70.6789C28.027 71.6697 29.3459 72 30.6649 72C31.9838 72 33.3027 71.6697 34.2919 70.6789C34.9514 70.0183 35.9405 69.0275 37.2595 68.0367C45.5027 60.7706 61.3297 46.8991 61.3297 30.3853C61 22.4587 57.7027 14.5321 52.0973 8.91743ZM34.2919 64.7339C32.973 66.0551 31.9838 66.7156 30.9946 67.7064C30.6649 68.0367 30.0054 68.0367 29.6757 67.7064C28.6865 67.0459 27.6973 66.0551 26.7081 65.0642C18.7946 58.1284 4.28649 45.2477 4.28649 30.7156C4.28649 16.1835 16.1568 4.29358 30.6649 4.29358C45.173 4.29358 57.0432 16.1835 57.0432 30.7156C56.7135 44.9174 42.2054 57.7982 34.2919 64.7339Z" fill="url(#paint0_linear)"/>
<path d="M30.3351 15.8525C23.081 15.8525 17.1459 21.7975 17.1459 29.3938C17.1459 36.9902 23.081 42.9351 30.3351 42.9351C37.5891 42.9351 43.854 36.9902 43.854 29.3938C43.854 21.7975 37.9188 15.8525 30.3351 15.8525ZM30.3351 38.6415C25.3891 38.6415 21.1026 34.348 21.1026 29.3938C21.1026 24.4397 25.3891 20.1461 30.3351 20.1461C35.281 20.1461 39.5675 24.1094 39.5675 29.3938C39.5675 34.6782 35.6107 38.6415 30.3351 38.6415Z" fill="url(#paint1_linear)"/>
<defs>
<linearGradient id="paint0_linear" x1="30.6649" y1="0" x2="30.6649" y2="72" gradientUnits="userSpaceOnUse">
<stop stop-color="#4eff2f"/>
<stop offset="1" stop-color="#4eff2f"/>
</linearGradient>
<linearGradient id="paint1_linear" x1="30.4999" y1="15.8525" x2="30.4999" y2="42.9351" gradientUnits="userSpaceOnUse">
<stop stop-color="#4eff2f"/>
<stop offset="1" stop-color="#4eff2f"/>
</linearGradient>
</defs>
</svg>
