<svg width="49" height="81" viewBox="0 0 49 81" fill="none" xmlns="http://www.w3.org/2000/svg">
<path d="M9.36291 81C7.4903 81 5.92979 80.6885 4.36928 79.7538C4.05718 79.4423 3.74508 79.4423 3.43298 79.1308C1.24826 77.5731 0.311957 75.3923 0.311957 72.5885C0.311957 64.8 0.311957 57.0115 0.311957 49.2231C0.311957 37.6962 0.311957 26.1692 0.311957 14.6423C-0.000144623 12.15 -0.000144623 9.34615 0.311957 6.85385C0.624059 3.11538 4.05718 0 8.1145 0C18.726 0 29.6495 0 40.5731 0C45.2546 0 48.9999 3.42692 48.9999 8.1C48.9999 11.5269 48.9999 14.9538 48.9999 18.3808C48.9999 33.9577 48.9999 49.5346 48.9999 65.1115C48.9999 67.6038 48.9999 69.7846 48.9999 72.2769C48.9999 76.3269 46.1909 80.0654 42.1336 80.6885C41.8215 80.6885 41.5094 80.6885 41.5094 80.6885H9.36291V81ZM45.5667 64.8C45.5667 48.6 45.5667 32.4 45.5667 16.2C31.5222 16.2 17.4776 16.2 3.43298 16.2C3.43298 32.4 3.43298 48.6 3.43298 64.8C17.4776 64.8 31.5222 64.8 45.5667 64.8ZM3.43298 68.2269C3.43298 69.7846 3.43298 71.0308 3.43298 72.2769C3.12087 75.0808 4.99349 77.8846 8.73871 77.8846C14.9807 77.8846 21.5349 77.8846 27.7769 77.8846C32.1464 77.8846 36.5158 77.8846 40.8852 77.8846C43.0699 77.8846 44.9425 76.3269 45.2546 74.1461C45.5667 72.2769 45.2546 70.0962 45.2546 68.2269C31.5222 68.2269 17.4776 68.2269 3.43298 68.2269ZM3.43298 12.7731C17.4776 12.7731 31.5222 12.7731 45.5667 12.7731C45.5667 11.2154 45.5667 9.96923 45.5667 8.41154C45.5667 5.91923 43.6941 3.11538 40.261 3.11538C33.7069 3.11538 27.1527 3.11538 20.5986 3.11538C16.2292 3.11538 12.1718 3.11538 7.8024 3.11538C5.30559 3.11538 3.43298 4.98462 3.12087 7.47692C3.12087 9.34615 3.43298 11.2154 3.43298 12.7731Z" fill="url(#paint0_linear)"/>
<path d="M22.7832 72.9C22.7832 71.9654 23.4074 71.3423 24.3437 71.3423C25.28 71.3423 25.9042 71.9654 25.9042 72.9C25.9042 73.8346 25.28 74.4577 24.3437 74.4577C23.4074 74.7692 22.7832 73.8346 22.7832 72.9Z" fill="url(#paint1_linear)"/>
<path d="M24.3436 6.54248C25.2799 6.54248 26.5284 6.54248 27.4647 6.54248C28.401 6.54248 29.3373 7.16556 29.3373 8.10017C29.3373 9.03479 28.7131 9.65787 27.7768 9.65787C25.592 9.65787 23.4073 9.65787 21.2226 9.65787C20.2863 9.65787 19.6621 8.72325 19.6621 8.10017C19.6621 7.16556 20.2863 6.54248 21.5347 6.54248C22.471 6.54248 23.4073 6.54248 24.3436 6.54248Z" fill="url(#paint2_linear)"/>
<defs>
<linearGradient id="paint0_linear" x1="24.5389" y1="0" x2="24.5389" y2="81" gradientUnits="userSpaceOnUse">
<stop stop-color="#4eff2f"/>
<stop offset="1" stop-color="#4eff2f"/>
</linearGradient>
<linearGradient id="paint1_linear" x1="24.3437" y1="71.3423" x2="24.3437" y2="74.5188" gradientUnits="userSpaceOnUse">
<stop stop-color="#4eff2f"/>
<stop offset="1" stop-color="#4eff2f"/>
</linearGradient>
<linearGradient id="paint2_linear" x1="24.4997" y1="6.54248" x2="24.4997" y2="9.65787" gradientUnits="userSpaceOnUse">
<stop stop-color="#4eff2f"/>
<stop offset="1" stop-color="#4eff2f"/>
</linearGradient>
</defs>
</svg>
