<svg width="70" height="72" viewBox="0 0 70 72" fill="none" xmlns="http://www.w3.org/2000/svg">
<path d="M62.4358 21.6087H59.9567V1.40638C59.9567 0.855274 59.6348 0.35493 59.1334 0.126555C58.6319 -0.10196 58.0432 -0.0163196 57.6274 0.345509L53.9032 3.58551C51.9595 5.27666 49.8591 6.84154 47.6606 8.23668C39.3121 13.5351 29.6657 16.3357 19.7643 16.3357H12.9165C6.01746 16.3357 0.404419 21.9151 0.404419 28.7731C0.404419 35.6311 6.01732 41.2106 12.9165 41.2106H16.1976V70.5939C16.1976 71.3704 16.8273 72.0001 17.6038 72.0001H25.6701C28.4512 72.0001 30.714 69.7375 30.714 66.9563V61.0636H32.8442C35.6297 61.0636 37.8957 58.7976 37.8957 56.006C37.8957 53.2205 35.6297 50.9545 32.8442 50.9545H30.714V42.3706C36.7009 43.6555 42.435 45.9932 47.6606 49.3096C49.8593 50.705 51.9595 52.27 53.9032 53.9608L57.6274 57.2009C57.8884 57.428 58.2176 57.5463 58.5506 57.5463C58.7479 57.5463 58.9466 57.5048 59.1332 57.4198C59.6347 57.1915 59.9566 56.6911 59.9566 56.14V35.9378H62.4356C66.3836 35.9378 69.5954 32.726 69.5954 28.7685C69.5956 24.8204 66.3837 21.6087 62.4358 21.6087ZM3.21706 28.7733C3.21706 23.4661 7.56814 19.1483 12.9167 19.1483H16.1977V38.3983H12.9165C7.56814 38.3982 3.21706 34.0805 3.21706 28.7733ZM32.8444 53.767C34.0789 53.767 35.0834 54.7715 35.0834 56.0121C35.0834 57.2466 34.0789 58.2511 32.8444 58.2511H30.7142V53.767H32.8444ZM27.9017 66.9563C27.9017 68.1867 26.9007 69.1876 25.6702 69.1876H19.0102V41.2107H19.7644C22.5038 41.2107 25.2235 41.4252 27.9017 41.8475V66.9563ZM57.1442 53.0526L55.7492 51.8389C53.8927 50.2238 51.9013 48.7181 49.8205 47.3557V35.8424C49.8205 35.0658 49.1907 34.4361 48.4142 34.4361C47.6377 34.4361 47.008 35.0658 47.008 35.8424V45.6328C38.7226 40.8925 29.3569 38.3983 19.7644 38.3983H19.0102V19.1483H19.7644C29.3571 19.1483 38.7228 16.6541 47.008 11.9137V23.1282C47.008 23.9048 47.6377 24.5344 48.4142 24.5344C49.1907 24.5344 49.8205 23.9048 49.8205 23.1282V10.1908C51.9011 8.82857 53.8927 7.3229 55.7492 5.70754L57.1442 4.49395V53.0526ZM62.4358 33.1253H59.9567V24.4212H62.4358C64.8329 24.4212 66.7831 26.3714 66.7831 28.7781C66.7831 31.1751 64.8329 33.1253 62.4358 33.1253Z" fill="url(#paint0_linear)"/>
<path d="M49.7123 28.9727C49.4856 28.4289 48.9297 28.0746 48.3395 28.1065C47.7532 28.1383 47.2412 28.5419 47.0694 29.1021C46.8971 29.6635 47.1059 30.2908 47.577 30.6397C48.0358 30.9794 48.6711 31.0057 49.1562 30.7047C49.733 30.3468 49.9733 29.5996 49.7123 28.9727Z" fill="url(#paint1_linear)"/>
<defs>
<linearGradient id="paint0_linear" x1="34.9999" y1="0" x2="34.9999" y2="72.0001" gradientUnits="userSpaceOnUse">
<stop stop-color="#4eff2f"/>
<stop offset="1" stop-color="#4eff2f"/>
</linearGradient>
<linearGradient id="paint1_linear" x1="48.4134" y1="28.1045" x2="48.4134" y2="30.9137" gradientUnits="userSpaceOnUse">
<stop stop-color="#4eff2f"/>
<stop offset="1" stop-color="#4eff2f"/>
</linearGradient>
</defs>
</svg>
